<svg width="305" height="305" viewBox="0 0 305 305" fill="none" xmlns="http://www.w3.org/2000/svg">
<g clip-path="url(#clip0)">
<rect width="305" height="305" fill="white"/>
<path d="M170.424 59.676C180.28 59.676 189.417 61.3187 197.836 64.604C206.255 67.684 213.544 72.0987 219.704 77.848C225.864 83.5973 230.689 90.5787 234.18 98.792C237.876 106.8 239.724 115.732 239.724 125.588C239.724 139.14 236.439 150.844 229.868 160.7C223.503 170.351 214.981 177.743 204.304 182.876L231.1 230H196.912L175.352 190.576H101.74V230H70.324V59.676H170.424ZM101.74 161.932H169.192C180.896 161.932 190.341 158.749 197.528 152.384C204.92 146.019 208.616 137.087 208.616 125.588C208.616 113.884 204.92 104.747 197.528 98.176C190.341 91.6053 180.896 88.32 169.192 88.32H101.74V161.932Z" fill="black"/>
</g>
<defs>
<clipPath id="clip0">
<rect width="305" height="305" fill="white"/>
</clipPath>
</defs>
</svg>
